<svg width="86" height="21" viewBox="0 0 86 21" fill="none" xmlns="http://www.w3.org/2000/svg">
    <path
        d="M68.3401 14.5509C50.6921 11.8188 34.8071 11.8484 17.1701 14.6535C16.1971 10.0142 15.7101 7.69456 14.7371 3.05723C34.0341 -0.0103187 51.4161 -0.0448489 70.7251 2.9487C69.7701 7.588 69.2931 9.90766 68.3401 14.5509Z"
        fill="black" />
    <path
        d="M0.535034 8.80951C3.84003 10.2402 5.44403 11.0068 8.55203 12.6279C6.70203 15.5771 5.84203 17.0689 4.24303 20.0713C8.73303 18.6318 11.007 18.0191 15.585 17.0077C14.536 12.3852 14.011 10.0744 12.962 5.45386C7.94603 6.5609 5.45503 7.23183 0.535034 8.80951Z"
        fill="black" />
    <path
        d="M85.465 8.80949C82.16 10.2402 80.555 11.0078 77.447 12.6279C79.297 15.578 80.158 17.0689 81.758 20.0713C77.078 18.5706 74.707 17.9381 69.932 16.9021C70.963 12.2757 71.479 9.96093 72.51 5.33643C77.74 6.47109 80.338 7.16571 85.465 8.80949Z"
        fill="black" />
</svg>