<svg width="28" height="28" viewBox="0 0 28 28" fill="none" xmlns="http://www.w3.org/2000/svg">
    <g clip-path="url(#clip0_37_44)">
        <path
            d="M24.5 9.2365V13.9428C22.3837 13.7329 20.3658 12.9455 18.6667 11.6667V16.9167C18.6664 18.3413 18.2647 19.7371 17.5078 20.944C16.7509 22.1509 15.6693 23.1203 14.3869 23.7409C13.1046 24.3615 11.6733 24.6084 10.2572 24.4532C8.84099 24.298 7.49718 23.747 6.37969 22.8633C5.2622 21.9797 4.41623 20.7991 3.9387 19.4569C3.46117 18.1146 3.37139 16.665 3.67965 15.2741C3.98792 13.8832 4.68175 12.6073 5.68167 11.5925C6.68158 10.5777 7.94714 9.8651 9.33333 9.53633V14.5833C8.9356 14.8816 8.62072 15.2766 8.4186 15.7309C8.21647 16.1851 8.1338 16.6834 8.17845 17.1786C8.2231 17.6738 8.39358 18.1493 8.6737 18.56C8.95382 18.9708 9.33428 19.3031 9.77896 19.5254C10.2236 19.7478 10.7178 19.8527 11.2144 19.8304C11.7111 19.808 12.1938 19.6591 12.6167 19.3977C13.0396 19.1364 13.3887 18.7712 13.6308 18.337C13.8729 17.9027 14 17.4138 14 16.9167V3.5H18.7635C19.0064 4.93314 19.6891 6.25523 20.7169 7.28306C21.7448 8.3109 23.0669 8.99358 24.5 9.2365Z"
            stroke="black" stroke-width="2" stroke-linecap="round" stroke-linejoin="round" />
    </g>
    <defs>
        <clipPath id="clip0_37_44">
            <rect width="28" height="28" fill="white" />
        </clipPath>
    </defs>
</svg>