<svg width="28" height="28" viewBox="0 0 28 28" fill="none" xmlns="http://www.w3.org/2000/svg">
    <g clip-path="url(#clip0_37_52)">
        <path
            d="M3.5 24.5001L5.425 20.0668C3.95227 17.9762 3.29311 15.42 3.57122 12.8779C3.84933 10.3358 5.04558 7.98258 6.93549 6.25986C8.8254 4.53714 11.279 3.56334 13.8359 3.5212C16.3928 3.47907 18.8772 4.3715 20.8229 6.03102C22.7685 7.69054 24.0417 10.0031 24.4034 12.5346C24.7651 15.0661 24.1905 17.6427 22.7875 19.7807C21.3844 21.9186 19.2494 23.4711 16.783 24.1467C14.3166 24.8223 11.6884 24.5746 9.39167 23.4501L3.5 24.5001Z"
            stroke="black" stroke-width="2" stroke-linecap="round" stroke-linejoin="round" />
        <path
            d="M10.5 11.6667C10.5 11.8215 10.5615 11.9698 10.6709 12.0792C10.7803 12.1886 10.9286 12.2501 11.0833 12.2501C11.238 12.2501 11.3864 12.1886 11.4958 12.0792C11.6052 11.9698 11.6667 11.8215 11.6667 11.6667V10.5001C11.6667 10.3454 11.6052 10.197 11.4958 10.0876C11.3864 9.97821 11.238 9.91675 11.0833 9.91675C10.9286 9.91675 10.7803 9.97821 10.6709 10.0876C10.5615 10.197 10.5 10.3454 10.5 10.5001V11.6667ZM10.5 11.6667C10.5 13.2138 11.1146 14.6976 12.2085 15.7915C13.3025 16.8855 14.7862 17.5001 16.3333 17.5001M16.3333 17.5001H17.5C17.6547 17.5001 17.8031 17.4386 17.9125 17.3292C18.0219 17.2198 18.0833 17.0715 18.0833 16.9167C18.0833 16.762 18.0219 16.6137 17.9125 16.5043C17.8031 16.3949 17.6547 16.3334 17.5 16.3334H16.3333C16.1786 16.3334 16.0303 16.3949 15.9209 16.5043C15.8115 16.6137 15.75 16.762 15.75 16.9167C15.75 17.0715 15.8115 17.2198 15.9209 17.3292C16.0303 17.4386 16.1786 17.5001 16.3333 17.5001Z"
            stroke="black" stroke-width="2" stroke-linecap="round" stroke-linejoin="round" />
    </g>
    <defs>
        <clipPath id="clip0_37_52">
            <rect width="28" height="28" fill="white" />
        </clipPath>
    </defs>
</svg>